<svg width="98" height="20" viewBox="0 0 98 20" fill="none" xmlns="http://www.w3.org/2000/svg">
<path d="M1.725 9.41875V14.5H0.149997V1.05625H3.84375C5.28125 1.05625 6.39375 1.40625 7.18125 2.10625C7.975 2.80625 8.37187 3.79375 8.37187 5.06875C8.37187 6.34375 7.93125 7.3875 7.05 8.2C6.175 9.0125 4.99062 9.41875 3.49687 9.41875H1.725ZM1.725 2.48125V7.99375H3.375C4.4625 7.99375 5.29062 7.74687 5.85937 7.25312C6.43437 6.75312 6.72187 6.05 6.72187 5.14375C6.72187 3.36875 5.67187 2.48125 3.57187 2.48125H1.725ZM14.0062 14.725C12.5875 14.725 11.4531 14.2781 10.6031 13.3844C9.75937 12.4844 9.3375 11.2937 9.3375 9.8125C9.3375 8.2 9.77812 6.94062 10.6594 6.03437C11.5406 5.12812 12.7312 4.675 14.2312 4.675C15.6625 4.675 16.7781 5.11562 17.5781 5.99687C18.3844 6.87812 18.7875 8.1 18.7875 9.6625C18.7875 11.1937 18.3531 12.4219 17.4844 13.3469C16.6219 14.2656 15.4625 14.725 14.0062 14.725ZM14.1187 5.96875C13.1312 5.96875 12.35 6.30625 11.775 6.98125C11.2 7.65 10.9125 8.575 10.9125 9.75625C10.9125 10.8937 11.2031 11.7906 11.7844 12.4469C12.3656 13.1031 13.1437 13.4312 14.1187 13.4312C15.1125 13.4312 15.875 13.1094 16.4062 12.4656C16.9437 11.8219 17.2125 10.9062 17.2125 9.71875C17.2125 8.51875 16.9437 7.59375 16.4062 6.94375C15.875 6.29375 15.1125 5.96875 14.1187 5.96875ZM33.3375 4.9L30.4594 14.5H28.8656L26.8875 7.62812C26.8125 7.36562 26.7625 7.06875 26.7375 6.7375H26.7C26.6812 6.9625 26.6156 7.25312 26.5031 7.60937L24.3562 14.5H22.8187L19.9125 4.9H21.525L23.5125 12.1187C23.575 12.3375 23.6187 12.625 23.6437 12.9812H23.7187C23.7375 12.7062 23.7937 12.4125 23.8875 12.1L26.1 4.9H27.5062L29.4937 12.1375C29.5562 12.3687 29.6031 12.6562 29.6344 13H29.7094C29.7219 12.7562 29.775 12.4687 29.8687 12.1375L31.8187 4.9H33.3375ZM42.8344 10.0844H36.0563C36.0813 11.1531 36.3688 11.9781 36.9188 12.5594C37.4688 13.1406 38.225 13.4312 39.1875 13.4312C40.2688 13.4312 41.2625 13.075 42.1688 12.3625V13.8062C41.325 14.4187 40.2094 14.725 38.8219 14.725C37.4656 14.725 36.4 14.2906 35.625 13.4219C34.85 12.5469 34.4625 11.3187 34.4625 9.7375C34.4625 8.24375 34.8844 7.02812 35.7281 6.09062C36.5781 5.14687 37.6313 4.675 38.8875 4.675C40.1438 4.675 41.1156 5.08125 41.8031 5.89375C42.4906 6.70625 42.8344 7.83437 42.8344 9.27812V10.0844ZM41.2594 8.78125C41.2531 7.89375 41.0375 7.20312 40.6125 6.70937C40.1938 6.21562 39.6094 5.96875 38.8594 5.96875C38.1344 5.96875 37.5188 6.22812 37.0125 6.74687C36.5063 7.26562 36.1938 7.94375 36.075 8.78125H41.2594ZM50.175 6.45625C49.9062 6.25 49.5187 6.14687 49.0125 6.14687C48.3562 6.14687 47.8062 6.45625 47.3625 7.075C46.925 7.69375 46.7062 8.5375 46.7062 9.60625V14.5H45.1687V4.9H46.7062V6.87812H46.7437C46.9625 6.20312 47.2969 5.67812 47.7469 5.30312C48.1969 4.92187 48.7 4.73125 49.2562 4.73125C49.6562 4.73125 49.9625 4.775 50.175 4.8625V6.45625ZM59.5594 10.0844H52.7812C52.8062 11.1531 53.0937 11.9781 53.6437 12.5594C54.1937 13.1406 54.95 13.4312 55.9125 13.4312C56.9937 13.4312 57.9875 13.075 58.8937 12.3625V13.8062C58.05 14.4187 56.9344 14.725 55.5469 14.725C54.1906 14.725 53.125 14.2906 52.35 13.4219C51.575 12.5469 51.1875 11.3187 51.1875 9.7375C51.1875 8.24375 51.6094 7.02812 52.4531 6.09062C53.3031 5.14687 54.3562 4.675 55.6125 4.675C56.8687 4.675 57.8406 5.08125 58.5281 5.89375C59.2156 6.70625 59.5594 7.83437 59.5594 9.27812V10.0844ZM57.9844 8.78125C57.9781 7.89375 57.7625 7.20312 57.3375 6.70937C56.9187 6.21562 56.3344 5.96875 55.5844 5.96875C54.8594 5.96875 54.2437 6.22812 53.7375 6.74687C53.2312 7.26562 52.9187 7.94375 52.8 8.78125H57.9844ZM70.0875 14.5H68.55V12.8687H68.5125C67.8 14.1062 66.7 14.725 65.2125 14.725C64.0062 14.725 63.0406 14.2969 62.3156 13.4406C61.5969 12.5781 61.2375 11.4062 61.2375 9.925C61.2375 8.3375 61.6375 7.06562 62.4375 6.10937C63.2375 5.15312 64.3031 4.675 65.6344 4.675C66.9531 4.675 67.9125 5.19375 68.5125 6.23125H68.55V0.287499H70.0875V14.5ZM68.55 10.1594V8.74375C68.55 7.96875 68.2937 7.3125 67.7812 6.775C67.2687 6.2375 66.6187 5.96875 65.8312 5.96875C64.8937 5.96875 64.1562 6.3125 63.6187 7C63.0812 7.6875 62.8125 8.6375 62.8125 9.85C62.8125 10.9562 63.0687 11.8312 63.5812 12.475C64.1 13.1125 64.7937 13.4312 65.6625 13.4312C66.5187 13.4312 67.2125 13.1219 67.7437 12.5031C68.2812 11.8844 68.55 11.1031 68.55 10.1594ZM80.0437 13.1125H80.0062V14.5H78.4687V0.287499H80.0062V6.5875H80.0437C80.8 5.3125 81.9062 4.675 83.3625 4.675C84.5937 4.675 85.5562 5.10625 86.25 5.96875C86.95 6.825 87.3 7.975 87.3 9.41875C87.3 11.025 86.9094 12.3125 86.1281 13.2812C85.3469 14.2437 84.2781 14.725 82.9219 14.725C81.6531 14.725 80.6937 14.1875 80.0437 13.1125ZM80.0062 9.24062V10.5812C80.0062 11.375 80.2625 12.05 80.775 12.6062C81.2937 13.1562 81.95 13.4312 82.7437 13.4312C83.675 13.4312 84.4031 13.075 84.9281 12.3625C85.4594 11.65 85.725 10.6594 85.725 9.39062C85.725 8.32187 85.4781 7.48437 84.9844 6.87812C84.4906 6.27187 83.8219 5.96875 82.9781 5.96875C82.0844 5.96875 81.3656 6.28125 80.8219 6.90625C80.2781 7.525 80.0062 8.30312 80.0062 9.24062ZM97.3969 4.9L92.9812 16.0375C92.1937 18.025 91.0875 19.0188 89.6625 19.0188C89.2625 19.0188 88.9281 18.9781 88.6594 18.8969V17.5188C88.9906 17.6313 89.2937 17.6875 89.5687 17.6875C90.3437 17.6875 90.925 17.225 91.3125 16.3L92.0812 14.4812L88.3312 4.9H90.0375L92.6344 12.2875C92.6656 12.3812 92.7312 12.625 92.8312 13.0187H92.8875C92.9187 12.8687 92.9812 12.6312 93.075 12.3062L95.8031 4.9H97.3969Z" fill="#6BC0DC"/>
</svg>
