<svg width="21" height="21" viewBox="0 0 21 21" fill="none" xmlns="http://www.w3.org/2000/svg">
<path d="M6.49854 14.7998C7.29854 14.7998 7.99854 14.1998 7.99854 13.3998C7.99854 13.2998 7.99854 13.1998 7.99854 13.0998L10.7985 10.2998C10.9985 10.2998 11.0985 10.2998 11.2985 10.2998L12.8985 11.8998V11.9998C12.8985 12.7998 13.5985 13.4998 14.3985 13.4998C15.1985 13.4998 15.8985 12.7998 15.8985 11.9998V11.8998L19.4985 8.2998C20.2985 8.2998 20.9985 7.5998 20.9985 6.7998C20.9985 5.9998 20.2985 5.2998 19.4985 5.2998C18.6985 5.2998 17.9985 5.9998 17.9985 6.7998C17.9985 6.8998 17.9985 6.8998 17.9985 6.9998L14.3985 10.5998H14.2985H14.1985L12.4985 8.7998C12.4985 7.9998 11.6985 7.29981 10.8985 7.39981C10.0985 7.39981 9.49854 7.9998 9.49854 8.7998L6.49854 11.7998C5.69853 11.7998 4.99854 12.4998 4.99854 13.2998C4.99854 14.0998 5.69853 14.7998 6.49854 14.7998ZM19.9985 18.7998H2.99854V1.7998C2.99854 1.1998 2.59854 0.799805 1.99854 0.799805C1.39854 0.799805 0.998535 1.1998 0.998535 1.7998V19.7998C0.998535 20.3998 1.39854 20.7998 1.99854 20.7998H19.9985C20.5985 20.7998 20.9985 20.3998 20.9985 19.7998C20.9985 19.1998 20.5985 18.7998 19.9985 18.7998Z" fill="#26555A"/>
</svg>
