<svg width="21" height="21" viewBox="0 0 21 21" fill="none" xmlns="http://www.w3.org/2000/svg">
<path d="M10.4995 0.799805C4.99951 0.799805 0.499512 5.2998 0.499512 10.7998C0.499512 16.2998 4.99951 20.7998 10.4995 20.7998C15.9995 20.7998 20.4995 16.2998 20.4995 10.7998C20.4995 5.2998 15.9995 0.799805 10.4995 0.799805ZM12.4995 14.4998C11.9995 14.7998 11.3995 14.5998 11.0995 14.0998L9.59951 11.2998C9.49951 11.0998 9.49951 10.9998 9.49951 10.7998V5.7998C9.49951 5.1998 9.89951 4.7998 10.4995 4.7998C11.0995 4.7998 11.4995 5.1998 11.4995 5.7998V10.4998L12.8995 13.0998C13.0995 13.5998 12.9995 14.1998 12.4995 14.4998Z" fill="#C3910E"/>
</svg>
