<svg width="21" height="21" viewBox="0 0 21 21" fill="none" xmlns="http://www.w3.org/2000/svg">
<path d="M5.99902 14.7998C6.79902 14.7998 7.49902 14.1998 7.49902 13.3998C7.49902 13.2998 7.49902 13.1998 7.49902 13.0998L10.299 10.2998C10.499 10.2998 10.599 10.2998 10.799 10.2998L12.399 11.8998V11.9998C12.399 12.7998 13.099 13.4998 13.899 13.4998C14.699 13.4998 15.399 12.7998 15.399 11.9998V11.8998L18.999 8.2998C19.799 8.2998 20.499 7.5998 20.499 6.7998C20.499 5.9998 19.799 5.2998 18.999 5.2998C18.199 5.2998 17.499 5.9998 17.499 6.7998C17.499 6.8998 17.499 6.8998 17.499 6.9998L13.899 10.5998H13.799H13.699L11.999 8.7998C11.999 7.9998 11.199 7.29981 10.399 7.39981C9.59902 7.39981 8.99902 7.9998 8.99902 8.7998L5.99902 11.7998C5.19902 11.7998 4.49902 12.4998 4.49902 13.2998C4.49902 14.0998 5.19902 14.7998 5.99902 14.7998ZM19.499 18.7998H2.49902V1.7998C2.49902 1.1998 2.09902 0.799805 1.49902 0.799805C0.899023 0.799805 0.499023 1.1998 0.499023 1.7998V19.7998C0.499023 20.3998 0.899023 20.7998 1.49902 20.7998H19.499C20.099 20.7998 20.499 20.3998 20.499 19.7998C20.499 19.1998 20.099 18.7998 19.499 18.7998Z" fill="#C3910E"/>
</svg>
