<svg width="18" height="21" viewBox="0 0 18 21" fill="none" xmlns="http://www.w3.org/2000/svg">
<path d="M15.216 1.968H11.544V0.936C11.544 0.408 11.112 0 10.608 0H7.032C6.504 0 6.096 0.432 6.096 0.936V1.968H2.424C1.08 1.968 0 3.048 0 4.392C0 4.56 0.144 4.68 0.288 4.68H1.104L2.52 19.008C2.592 19.872 3.336 20.52 4.2 20.52H13.512C14.376 20.52 15.12 19.848 15.192 18.984L16.536 4.68H17.352C17.52 4.68 17.64 4.536 17.64 4.392C17.64 3.072 16.536 1.968 15.216 1.968ZM6.024 17.688C6.024 17.856 5.904 17.976 5.736 17.976H5.304C5.136 17.976 5.016 17.856 5.016 17.688V7.008C5.016 6.84 5.136 6.72 5.304 6.72H5.736C5.904 6.72 6.024 6.84 6.024 7.008V17.688ZM9.312 17.688C9.312 17.856 9.192 17.976 9.024 17.976H8.592C8.424 17.976 8.304 17.856 8.304 17.688V7.008C8.304 6.84 8.424 6.72 8.592 6.72H9.024C9.192 6.72 9.312 6.84 9.312 7.008V17.688ZM10.584 1.968H7.032V0.936H10.584V1.968ZM12.6 17.688C12.6 17.856 12.48 17.976 12.312 17.976H11.88C11.712 17.976 11.592 17.856 11.592 17.688V7.008C11.592 6.84 11.712 6.72 11.88 6.72H12.312C12.48 6.72 12.6 6.84 12.6 7.008V17.688Z" fill="#212121"/>
</svg>
