<svg width="20" height="20" viewBox="0 0 20 20" fill="none" xmlns="http://www.w3.org/2000/svg">
<circle cx="10" cy="10" r="9.5" fill="white" stroke="black"/>
<path d="M15.0004 11.1115C14.853 11.1115 14.7117 11.17 14.6075 11.2742C14.5034 11.3784 14.4448 11.5197 14.4448 11.667V13.8893C14.4448 14.0366 14.3863 14.1779 14.2821 14.2821C14.1779 14.3863 14.0366 14.4448 13.8893 14.4448H6.11149C5.96415 14.4448 5.82284 14.3863 5.71865 14.2821C5.61447 14.1779 5.55594 14.0366 5.55594 13.8893V11.667C5.55594 11.5197 5.4974 11.3784 5.39322 11.2742C5.28903 11.17 5.14772 11.1115 5.00038 11.1115C4.85304 11.1115 4.71173 11.17 4.60754 11.2742C4.50336 11.3784 4.44482 11.5197 4.44482 11.667V13.8893C4.44482 14.3313 4.62042 14.7552 4.93298 15.0678C5.24554 15.3803 5.66946 15.5559 6.11149 15.5559H13.8893C14.3313 15.5559 14.7552 15.3803 15.0678 15.0678C15.3803 14.7552 15.5559 14.3313 15.5559 13.8893V11.667C15.5559 11.5197 15.4974 11.3784 15.3932 11.2742C15.289 11.17 15.1477 11.1115 15.0004 11.1115ZM9.60594 12.0615C9.65877 12.1121 9.72107 12.1517 9.78927 12.1782C9.85577 12.2075 9.92767 12.2227 10.0004 12.2227C10.0731 12.2227 10.145 12.2075 10.2115 12.1782C10.2797 12.1517 10.342 12.1121 10.3948 12.0615L12.617 9.83927C12.7217 9.73466 12.7804 9.59277 12.7804 9.44482C12.7804 9.29688 12.7217 9.15499 12.617 9.05038C12.5124 8.94577 12.3705 8.887 12.2226 8.887C12.0747 8.887 11.9328 8.94577 11.8282 9.05038L10.5559 10.3282V5.00038C10.5559 4.85304 10.4974 4.71173 10.3932 4.60754C10.289 4.50336 10.1477 4.44482 10.0004 4.44482C9.85304 4.44482 9.71173 4.50336 9.60754 4.60754C9.50336 4.71173 9.44482 4.85304 9.44482 5.00038V10.3282L8.1726 9.05038C8.1208 8.99858 8.05931 8.95749 7.99163 8.92946C7.92395 8.90142 7.85141 8.887 7.77816 8.887C7.7049 8.887 7.63236 8.90142 7.56469 8.92946C7.49701 8.95749 7.43551 8.99858 7.38371 9.05038C7.33191 9.10218 7.29082 9.16367 7.26279 9.23135C7.23476 9.29903 7.22033 9.37157 7.22033 9.44482C7.22033 9.51808 7.23476 9.59062 7.26279 9.6583C7.29082 9.72598 7.33191 9.78747 7.38371 9.83927L9.60594 12.0615Z" fill="black"/>
</svg>
