<svg width="30" height="30" viewBox="0 0 30 30" fill="none" xmlns="http://www.w3.org/2000/svg">
<circle cx="15" cy="15" r="14.5" fill="white" stroke="#51A7C2"/>
<path d="M22.5001 16.6665C22.2791 16.6665 22.0671 16.7543 21.9108 16.9106C21.7545 17.0669 21.6667 17.2788 21.6667 17.4998V20.8332C21.6667 21.0542 21.579 21.2661 21.4227 21.4224C21.2664 21.5787 21.0544 21.6665 20.8334 21.6665H9.16675C8.94573 21.6665 8.73377 21.5787 8.57749 21.4224C8.42121 21.2661 8.33341 21.0542 8.33341 20.8332V17.4998C8.33341 17.2788 8.24562 17.0669 8.08934 16.9106C7.93306 16.7543 7.7211 16.6665 7.50008 16.6665C7.27907 16.6665 7.06711 16.7543 6.91083 16.9106C6.75455 17.0669 6.66675 17.2788 6.66675 17.4998V20.8332C6.66675 21.4962 6.93014 22.1321 7.39898 22.6009C7.86782 23.0698 8.50371 23.3332 9.16675 23.3332H20.8334C21.4965 23.3332 22.1323 23.0698 22.6012 22.6009C23.07 22.1321 23.3334 21.4962 23.3334 20.8332V17.4998C23.3334 17.2788 23.2456 17.0669 23.0893 16.9106C22.9331 16.7543 22.7211 16.6665 22.5001 16.6665ZM14.4084 18.0915C14.4877 18.1674 14.5811 18.2268 14.6834 18.2665C14.7832 18.3106 14.891 18.3334 15.0001 18.3334C15.1091 18.3334 15.217 18.3106 15.3167 18.2665C15.419 18.2268 15.5125 18.1674 15.5917 18.0915L18.9251 14.7582C19.082 14.6013 19.1702 14.3884 19.1702 14.1665C19.1702 13.9446 19.082 13.7318 18.9251 13.5748C18.7682 13.4179 18.5553 13.3298 18.3334 13.3298C18.1115 13.3298 17.8987 13.4179 17.7417 13.5748L15.8334 15.4915V7.49984C15.8334 7.27882 15.7456 7.06686 15.5893 6.91058C15.4331 6.7543 15.2211 6.6665 15.0001 6.6665C14.7791 6.6665 14.5671 6.7543 14.4108 6.91058C14.2545 7.06686 14.1667 7.27882 14.1667 7.49984V15.4915L12.2584 13.5748C12.1807 13.4971 12.0885 13.4355 11.987 13.3935C11.8854 13.3514 11.7766 13.3298 11.6667 13.3298C11.5569 13.3298 11.4481 13.3514 11.3465 13.3935C11.245 13.4355 11.1528 13.4971 11.0751 13.5748C10.9974 13.6525 10.9357 13.7448 10.8937 13.8463C10.8516 13.9478 10.83 14.0566 10.83 14.1665C10.83 14.2764 10.8516 14.3852 10.8937 14.4867C10.9357 14.5882 10.9974 14.6805 11.0751 14.7582L14.4084 18.0915Z" fill="#51A7C2"/>
</svg>
