<svg width="155" height="34" viewBox="0 0 155 34" fill="none" xmlns="http://www.w3.org/2000/svg">
<path d="M58.1884 22.714C57.4985 23.0785 56.6393 23.2607 55.6109 23.2607C54.2831 23.2607 53.22 22.8333 52.4216 21.9785C51.6232 21.1237 51.224 20.002 51.224 18.6134C51.224 17.1207 51.6731 15.9144 52.5713 14.9945C53.4696 14.0746 54.6086 13.6147 55.9885 13.6147C56.8736 13.6147 57.607 13.7427 58.1884 13.9987V15.1638C57.5202 14.7906 56.7825 14.604 55.9754 14.604C54.9037 14.604 54.0336 14.962 53.3654 15.678C52.7015 16.3939 52.3696 17.3507 52.3696 18.5483C52.3696 19.6852 52.6798 20.5921 53.3003 21.269C53.9252 21.9416 54.7431 22.2779 55.7541 22.2779C56.6914 22.2779 57.5028 22.0696 58.1884 21.653V22.714ZM62.7316 23.2607C61.7466 23.2607 60.959 22.9505 60.3689 22.3299C59.7831 21.7051 59.4902 20.8785 59.4902 19.8501C59.4902 18.7306 59.7961 17.8562 60.4079 17.2271C61.0197 16.5979 61.8464 16.2833 62.8878 16.2833C63.8814 16.2833 64.656 16.5892 65.2114 17.201C65.7712 17.8128 66.051 18.6612 66.051 19.746C66.051 20.8091 65.7495 21.6617 65.1463 22.3039C64.5475 22.9418 63.7426 23.2607 62.7316 23.2607ZM62.8097 17.1815C62.1241 17.1815 61.5817 17.4158 61.1825 17.8844C60.7833 18.3487 60.5837 18.9909 60.5837 19.811C60.5837 20.6008 60.7854 21.2235 61.189 21.6791C61.5925 22.1347 62.1327 22.3625 62.8097 22.3625C63.4996 22.3625 64.029 22.139 64.3978 21.6921C64.771 21.2451 64.9576 20.6095 64.9576 19.785C64.9576 18.9519 64.771 18.3097 64.3978 17.8584C64.029 17.4071 63.4996 17.1815 62.8097 17.1815ZM77.2201 23.1045H76.1527V19.2773C76.1527 18.5397 76.0377 18.0059 75.8077 17.6762C75.5821 17.3464 75.2002 17.1815 74.6622 17.1815C74.2066 17.1815 73.8182 17.3898 73.4971 17.8063C73.1803 18.2229 73.022 18.7219 73.022 19.3034V23.1045H71.9545V19.1471C71.9545 17.8367 71.449 17.1815 70.438 17.1815C69.9693 17.1815 69.5831 17.3789 69.2794 17.7738C68.9757 18.1643 68.8238 18.6742 68.8238 19.3034V23.1045H67.7563V16.4395H68.8238V17.4939H68.8498C69.3228 16.6868 70.0127 16.2833 70.9196 16.2833C71.3752 16.2833 71.7723 16.4113 72.1107 16.6673C72.4492 16.919 72.6813 17.2509 72.8072 17.6631C73.3018 16.7432 74.0395 16.2833 75.0201 16.2833C76.4868 16.2833 77.2201 17.188 77.2201 18.9974V23.1045ZM80.3313 22.1412H80.3053V26.1701H79.2378V16.4395H80.3053V17.6111H80.3313C80.8564 16.7259 81.6244 16.2833 82.6354 16.2833C83.4946 16.2833 84.165 16.5827 84.6466 17.1815C85.1283 17.776 85.3691 18.5744 85.3691 19.5767C85.3691 20.6919 85.0979 21.5858 84.5555 22.2583C84.0131 22.9266 83.2711 23.2607 82.3295 23.2607C81.466 23.2607 80.8 22.8875 80.3313 22.1412ZM80.3053 19.4531V20.3838C80.3053 20.9349 80.4832 21.4035 80.839 21.7897C81.1992 22.1716 81.6548 22.3625 82.2059 22.3625C82.8524 22.3625 83.3579 22.1152 83.7224 21.6205C84.0912 21.1258 84.2756 20.4381 84.2756 19.5572C84.2756 18.8152 84.1043 18.2337 83.7615 17.8128C83.4187 17.3919 82.9544 17.1815 82.3686 17.1815C81.7481 17.1815 81.2491 17.3985 80.8716 17.8324C80.494 18.262 80.3053 18.8022 80.3053 19.4531ZM91.8454 23.1045H90.7779V22.0631H90.7519C90.2876 22.8615 89.6042 23.2607 88.7016 23.2607C88.0377 23.2607 87.517 23.085 87.1395 22.7335C86.7663 22.382 86.5798 21.9156 86.5798 21.3341C86.5798 20.0888 87.3131 19.3641 88.7797 19.1602L90.7779 18.8803C90.7779 17.7478 90.3201 17.1815 89.4046 17.1815C88.6018 17.1815 87.8772 17.4549 87.2306 18.0016V16.9081C87.8859 16.4916 88.6409 16.2833 89.4957 16.2833C91.0621 16.2833 91.8454 17.1121 91.8454 18.7696V23.1045ZM90.7779 19.7329L89.1703 19.9542C88.6756 20.0237 88.3024 20.1473 88.0507 20.3252C87.7991 20.4988 87.6732 20.8091 87.6732 21.256C87.6732 21.5814 87.7882 21.8483 88.0182 22.0566C88.2525 22.2605 88.5628 22.3625 88.949 22.3625C89.4783 22.3625 89.9144 22.1781 90.2572 21.8092C90.6044 21.4361 90.7779 20.9653 90.7779 20.3968V19.7329ZM97.3323 17.52C97.1457 17.3768 96.8767 17.3052 96.5252 17.3052C96.0696 17.3052 95.6877 17.52 95.3796 17.9495C95.0759 18.3791 94.924 18.9649 94.924 19.7069V23.1045H93.8566V16.4395H94.924V17.8128H94.9501C95.1019 17.3442 95.3341 16.9797 95.6465 16.7194C95.9589 16.4547 96.3082 16.3223 96.6944 16.3223C96.9721 16.3223 97.1848 16.3527 97.3323 16.4135V17.52ZM103.848 20.0389H99.1417C99.1591 20.7809 99.3587 21.3536 99.7405 21.7572C100.122 22.1607 100.647 22.3625 101.316 22.3625C102.066 22.3625 102.756 22.1152 103.385 21.6205V22.6228C102.8 23.0481 102.025 23.2607 101.062 23.2607C100.12 23.2607 99.3804 22.9591 98.8423 22.356C98.3043 21.7485 98.0352 20.8958 98.0352 19.798C98.0352 18.761 98.3281 17.917 98.9139 17.2661C99.504 16.6109 100.235 16.2833 101.107 16.2833C101.98 16.2833 102.654 16.5653 103.132 17.1294C103.609 17.6935 103.848 18.4767 103.848 19.4791V20.0389ZM102.754 19.1341C102.75 18.518 102.6 18.0385 102.305 17.6957C102.014 17.3529 101.609 17.1815 101.088 17.1815C100.585 17.1815 100.157 17.3616 99.8056 17.7217C99.4541 18.0819 99.2372 18.5527 99.1547 19.1341H102.754Z" fill="#51A7C2"/>
<rect x="1" y="1.10449" width="153" height="32" rx="10" stroke="#51A7C2"/>
</svg>
