<svg width="30" height="31" viewBox="0 0 30 31" fill="none" xmlns="http://www.w3.org/2000/svg">
<circle cx="15" cy="15.2666" r="14.5" fill="white" stroke="#51A7C2"/>
<path d="M20.65 9.6166C19.02 7.9866 16.71 7.0466 14.17 7.3066C10.5 7.6766 7.48002 10.6566 7.07002 14.3266C6.52002 19.1766 10.27 23.2666 15 23.2666C18.19 23.2666 20.93 21.3966 22.21 18.7066C22.53 18.0366 22.05 17.2666 21.31 17.2666C20.94 17.2666 20.59 17.4666 20.43 17.7966C19.3 20.2266 16.59 21.7666 13.63 21.1066C11.41 20.6166 9.62002 18.8066 9.15002 16.5866C8.31002 12.7066 11.26 9.2666 15 9.2666C16.66 9.2666 18.14 9.9566 19.22 11.0466L17.71 12.5566C17.08 13.1866 17.52 14.2666 18.41 14.2666H22C22.55 14.2666 23 13.8166 23 13.2666V9.6766C23 8.7866 21.92 8.3366 21.29 8.9666L20.65 9.6166Z" fill="#51A7C2"/>
</svg>
