<svg width="30" height="31" viewBox="0 0 30 31" fill="none" xmlns="http://www.w3.org/2000/svg">
<circle cx="15" cy="15.2666" r="14.5" fill="white" stroke="#51A7C2"/>
<path d="M18.0625 17.3716C17.6377 17.3745 17.2192 17.4674 16.8382 17.6433C16.4573 17.8192 16.1239 18.0736 15.8631 18.3873L10.6431 15.9455C10.7103 15.7245 10.7462 15.4963 10.75 15.2666C10.7462 15.037 10.7103 14.8087 10.6431 14.5878L15.8631 12.146C16.1239 12.4597 16.4573 12.714 16.8382 12.8899C17.2192 13.0659 17.6377 13.1587 18.0625 13.1617C18.6188 13.1617 19.1625 13.0073 19.625 12.7182C20.0876 12.4291 20.448 12.0182 20.6609 11.5374C20.8738 11.0566 20.9295 10.5275 20.821 10.0171C20.7124 9.5067 20.4446 9.03786 20.0512 8.66988C19.6579 8.30189 19.1568 8.05129 18.6112 7.94977C18.0656 7.84824 17.5001 7.90035 16.9862 8.0995C16.4723 8.29865 16.033 8.6359 15.724 9.0686C15.415 9.50131 15.25 10.01 15.25 10.5304C15.2538 10.7601 15.2897 10.9883 15.3569 11.2093L10.1369 13.6511C9.87606 13.3374 9.54268 13.083 9.16176 12.9071C8.78085 12.7312 8.36228 12.6383 7.9375 12.6354C7.19158 12.6354 6.47621 12.9126 5.94876 13.4061C5.42132 13.8995 5.125 14.5688 5.125 15.2666C5.125 15.9645 5.42132 16.6337 5.94876 17.1272C6.47621 17.6206 7.19158 17.8979 7.9375 17.8979C8.36228 17.895 8.78085 17.8021 9.16176 17.6262C9.54268 17.4502 9.87606 17.1959 10.1369 16.8822L15.3569 19.324C15.2052 19.8555 15.2353 20.4182 15.4432 20.9328C15.651 21.4474 16.0261 21.8882 16.5156 22.1931C17.005 22.4979 17.5844 22.6516 18.1721 22.6325C18.7598 22.6133 19.3263 22.4223 19.7919 22.0863C20.2575 21.7503 20.5989 21.2862 20.7679 20.7593C20.937 20.2324 20.9253 19.6691 20.7344 19.1488C20.5435 18.6284 20.1831 18.1771 19.7038 17.8583C19.2246 17.5396 18.6505 17.3693 18.0625 17.3716ZM18.0625 8.9517C18.3963 8.9517 18.7225 9.04429 19 9.21776C19.2775 9.39124 19.4938 9.6378 19.6215 9.92628C19.7493 10.2148 19.7827 10.5322 19.7176 10.8384C19.6525 11.1447 19.4917 11.426 19.2557 11.6468C19.0197 11.8676 18.7191 12.0179 18.3917 12.0788C18.0644 12.1398 17.7251 12.1085 17.4167 11.989C17.1084 11.8695 16.8448 11.6672 16.6594 11.4075C16.474 11.1479 16.375 10.8427 16.375 10.5304C16.375 10.1117 16.5528 9.71017 16.8693 9.4141C17.1857 9.11803 17.6149 8.9517 18.0625 8.9517ZM7.9375 16.8454C7.60374 16.8454 7.27748 16.7528 6.99998 16.5793C6.72247 16.4058 6.50618 16.1593 6.37845 15.8708C6.25073 15.5823 6.21731 15.2649 6.28242 14.9586C6.34754 14.6524 6.50826 14.3711 6.74426 14.1503C6.98026 13.9295 7.28094 13.7792 7.60829 13.7182C7.93563 13.6573 8.27493 13.6886 8.58328 13.8081C8.89163 13.9276 9.15518 14.1299 9.3406 14.3895C9.52603 14.6492 9.625 14.9544 9.625 15.2666C9.625 15.6853 9.44721 16.0869 9.13074 16.383C8.81428 16.679 8.38505 16.8454 7.9375 16.8454ZM18.0625 21.5816C17.7287 21.5816 17.4025 21.489 17.125 21.3155C16.8475 21.142 16.6312 20.8955 16.5035 20.607C16.3757 20.3185 16.3423 20.0011 16.4074 19.6948C16.4725 19.3886 16.6333 19.1073 16.8693 18.8865C17.1053 18.6657 17.4059 18.5154 17.7333 18.4544C18.0606 18.3935 18.3999 18.4248 18.7083 18.5443C19.0166 18.6638 19.2802 18.8661 19.4656 19.1257C19.651 19.3854 19.75 19.6906 19.75 20.0028C19.75 20.4216 19.5722 20.8231 19.2557 21.1192C18.9393 21.4153 18.5101 21.5816 18.0625 21.5816Z" fill="#51A7C2"/>
</svg>
