<svg width="21" height="20" viewBox="0 0 21 20" fill="none" xmlns="http://www.w3.org/2000/svg">
<path d="M17.7001 12.1176C17.5001 12.0176 17.2001 12.0176 17.0001 12.0176C15.8001 12.0176 14.7001 12.5176 13.9001 13.5176L8.80011 11.2176C9.00011 10.5176 9.00011 9.71763 8.80011 8.91763L13.9001 6.61763C15.3001 8.31763 17.8001 8.51763 19.5001 7.11763C21.2001 5.71763 21.4001 3.21763 20.0001 1.51763C18.6001 -0.182367 16.1001 -0.382367 14.4001 1.01763C13.5001 1.71763 13.0001 2.81763 13.0001 4.01763C13.0001 4.21763 13.0001 4.51763 13.1001 4.71763L7.80011 7.11763C6.20011 5.61763 3.70011 5.61763 2.10011 7.21763C0.600107 8.81763 0.600107 11.3176 2.20011 12.9176C3.80011 14.4176 6.20011 14.4176 7.80011 12.9176L13.1001 15.3176C12.7001 17.5176 14.1001 19.6176 16.3001 19.9176C18.5001 20.3176 20.6001 18.9176 20.9001 16.7176C21.3001 14.5176 19.9001 12.5176 17.7001 12.1176Z" fill="black"/>
</svg>
