<svg width="104" height="42" viewBox="0 0 104 42" fill="none" xmlns="http://www.w3.org/2000/svg">
<path d="M20.0928 18.404H37.9168" stroke="#51A7C2" stroke-width="1.5" stroke-linecap="round" stroke-linejoin="round"/>
<path d="M33.4419 22.31H33.4509" stroke="#51A7C2" stroke-width="1.5" stroke-linecap="round" stroke-linejoin="round"/>
<path d="M29.0049 22.31H29.0139" stroke="#51A7C2" stroke-width="1.5" stroke-linecap="round" stroke-linejoin="round"/>
<path d="M24.5581 22.31H24.5671" stroke="#51A7C2" stroke-width="1.5" stroke-linecap="round" stroke-linejoin="round"/>
<path d="M33.4419 26.196H33.4509" stroke="#51A7C2" stroke-width="1.5" stroke-linecap="round" stroke-linejoin="round"/>
<path d="M29.0049 26.196H29.0139" stroke="#51A7C2" stroke-width="1.5" stroke-linecap="round" stroke-linejoin="round"/>
<path d="M24.5581 26.196H24.5671" stroke="#51A7C2" stroke-width="1.5" stroke-linecap="round" stroke-linejoin="round"/>
<path d="M33.0439 11V14.291" stroke="#51A7C2" stroke-width="1.5" stroke-linecap="round" stroke-linejoin="round"/>
<path d="M24.9658 11V14.291" stroke="#51A7C2" stroke-width="1.5" stroke-linecap="round" stroke-linejoin="round"/>
<path fill-rule="evenodd" clip-rule="evenodd" d="M33.2383 12.5792H24.771C21.8343 12.5792 20 14.2151 20 17.2222V26.2719C20 29.3262 21.8343 31 24.771 31H33.229C36.175 31 38 29.3546 38 26.3475V17.2222C38.0092 14.2151 36.1842 12.5792 33.2383 12.5792Z" stroke="#51A7C2" stroke-width="1.5" stroke-linecap="round" stroke-linejoin="round"/>
<path d="M49.2795 26H47.1687L47.1826 24.9099H49.2795C50.0016 24.9099 50.6033 24.7595 51.0847 24.4586C51.5661 24.1531 51.9272 23.7272 52.1679 23.181C52.4132 22.6302 52.5359 21.9867 52.5359 21.2507V20.6328C52.5359 20.0542 52.4665 19.5404 52.3276 19.0914C52.1887 18.6377 51.985 18.2558 51.7166 17.9457C51.4481 17.6309 51.1194 17.3925 50.7306 17.2305C50.3464 17.0685 49.9044 16.9875 49.4044 16.9875H47.127V15.8905H49.4044C50.0664 15.8905 50.6704 16.0016 51.2167 16.2237C51.7629 16.4413 52.2327 16.7584 52.6262 17.175C53.0242 17.587 53.3297 18.0869 53.5427 18.6748C53.7556 19.258 53.8621 19.9153 53.8621 20.6467V21.2507C53.8621 21.9821 53.7556 22.6417 53.5427 23.2296C53.3297 23.8128 53.0219 24.3104 52.6192 24.7224C52.2211 25.1344 51.7397 25.4515 51.175 25.6737C50.6149 25.8912 49.983 26 49.2795 26ZM47.8838 15.8905V26H46.5438V15.8905H47.8838ZM60.1111 24.7155V20.848C60.1111 20.5518 60.0509 20.2949 59.9306 20.0773C59.8148 19.8551 59.6389 19.6839 59.4029 19.5635C59.1668 19.4432 58.8752 19.383 58.528 19.383C58.204 19.383 57.9193 19.4385 57.674 19.5496C57.4333 19.6607 57.2435 19.8065 57.1046 19.9871C56.9704 20.1676 56.9033 20.362 56.9033 20.5703H55.6187C55.6187 20.3018 55.6882 20.0357 55.827 19.7718C55.9659 19.508 56.165 19.2696 56.4242 19.0566C56.688 18.8391 57.0028 18.6678 57.3685 18.5428C57.7388 18.4132 58.1508 18.3484 58.6044 18.3484C59.1506 18.3484 59.632 18.441 60.0486 18.6262C60.4698 18.8113 60.7985 19.0914 61.0346 19.4663C61.2753 19.8366 61.3956 20.3018 61.3956 20.8619V24.3614C61.3956 24.6113 61.4164 24.8775 61.4581 25.1599C61.5044 25.4422 61.5715 25.6852 61.6595 25.8889V26H60.3194C60.2546 25.8519 60.2037 25.6551 60.1666 25.4098C60.1296 25.1599 60.1111 24.9284 60.1111 24.7155ZM60.3333 21.4452L60.3472 22.3478H59.0488C58.6831 22.3478 58.3567 22.3779 58.0697 22.4381C57.7828 22.4936 57.5421 22.5792 57.3476 22.695C57.1532 22.8107 57.0051 22.9565 56.9033 23.1324C56.8014 23.3037 56.7505 23.505 56.7505 23.7365C56.7505 23.9725 56.8037 24.1878 56.9102 24.3822C57.0167 24.5766 57.1764 24.7317 57.3893 24.8474C57.6069 24.9585 57.873 25.014 58.1878 25.014C58.5812 25.014 58.9284 24.9307 59.2293 24.7641C59.5302 24.5974 59.7686 24.3938 59.9445 24.1531C60.125 23.9124 60.2222 23.6786 60.2361 23.4518L60.7846 24.0697C60.7522 24.2642 60.6642 24.4794 60.5208 24.7155C60.3773 24.9516 60.1852 25.1784 59.9445 25.3959C59.7084 25.6089 59.426 25.7871 59.0974 25.9306C58.7733 26.0694 58.4077 26.1389 58.0003 26.1389C57.4911 26.1389 57.0444 26.0393 56.6602 25.8403C56.2807 25.6413 55.9844 25.3751 55.7715 25.0418C55.5632 24.7039 55.459 24.3267 55.459 23.91C55.459 23.5073 55.5377 23.1532 55.6951 22.8477C55.8525 22.5376 56.0793 22.2807 56.3756 22.077C56.6718 21.8687 57.0282 21.7113 57.4448 21.6049C57.8614 21.4984 58.3267 21.4452 58.8405 21.4452H60.3333ZM66.5615 18.4873V19.4732H62.4996V18.4873H66.5615ZM63.8744 16.6612H65.1589V24.1392C65.1589 24.3938 65.1983 24.5859 65.277 24.7155C65.3556 24.8451 65.4575 24.9307 65.5825 24.9724C65.7074 25.014 65.8417 25.0349 65.9852 25.0349C66.0916 25.0349 66.2027 25.0256 66.3185 25.0071C66.4388 24.984 66.5291 24.9654 66.5892 24.9516L66.5962 26C66.4944 26.0324 66.3601 26.0625 66.1935 26.0903C66.0315 26.1227 65.8347 26.1389 65.6033 26.1389C65.2885 26.1389 64.9992 26.0764 64.7354 25.9514C64.4715 25.8264 64.2609 25.6181 64.1035 25.3265C63.9508 25.0302 63.8744 24.6322 63.8744 24.1322V16.6612ZM71.1858 26.1389C70.6627 26.1389 70.1882 26.0509 69.7624 25.875C69.3411 25.6945 68.9778 25.4422 68.6723 25.1182C68.3714 24.7942 68.1399 24.41 67.9779 23.9656C67.8159 23.5212 67.7349 23.0352 67.7349 22.5075V22.2159C67.7349 21.6049 67.8252 21.061 68.0057 20.5842C68.1862 20.1028 68.4316 19.6954 68.7417 19.3621C69.0518 19.0289 69.4036 18.7766 69.7971 18.6053C70.1905 18.4341 70.5979 18.3484 71.0191 18.3484C71.5561 18.3484 72.019 18.441 72.4078 18.6262C72.8012 18.8113 73.1229 19.0705 73.3729 19.4038C73.6229 19.7325 73.808 20.1213 73.9284 20.5703C74.0487 21.0147 74.1089 21.5007 74.1089 22.0284V22.6047H68.4987V21.5562H72.8244V21.459C72.8059 21.1258 72.7364 20.8017 72.6161 20.487C72.5004 20.1722 72.3152 19.913 72.0606 19.7093C71.806 19.5056 71.4589 19.4038 71.0191 19.4038C70.7275 19.4038 70.459 19.4663 70.2137 19.5913C69.9684 19.7116 69.7577 19.8922 69.5818 20.1329C69.4059 20.3736 69.2694 20.6675 69.1722 21.0147C69.075 21.3618 69.0264 21.7622 69.0264 22.2159V22.5075C69.0264 22.8639 69.075 23.1995 69.1722 23.5143C69.274 23.8244 69.4198 24.0975 69.6096 24.3336C69.804 24.5697 70.0378 24.7548 70.3109 24.8891C70.5886 25.0233 70.9034 25.0904 71.2552 25.0904C71.7088 25.0904 72.093 24.9978 72.4078 24.8127C72.7225 24.6275 72.998 24.3799 73.234 24.0697L74.0117 24.6877C73.8497 24.933 73.6437 25.1668 73.3937 25.389C73.1438 25.6112 72.836 25.7917 72.4703 25.9306C72.1092 26.0694 71.681 26.1389 71.1858 26.1389Z" fill="#51A7C2"/>
<path d="M87 19L83 23L79 19" stroke="#51A7C2" stroke-width="2"/>
<!-- <rect x="1" y="1" width="102" height="40" rx="10" stroke="#51A7C2"/> -->
</svg>
