<svg width="619" height="60" viewBox="0 0 519 50" fill="none" xmlns="http://www.w3.org/2000/svg">
<!-- <rect x="0.5" y="0.5" width="418" height="49" rx="4.5" fill="white" stroke="#D9D9D9"/> -->
<path d="M26.418 13.804C28.172 13.804 29.854 14.5 31.094 15.741C32.335 16.981 33.032 18.663 33.032 20.417H34.835C34.835 18.185 33.948 16.044 32.37 14.465C30.791 12.887 28.65 12 26.418 12C24.185 12 22.044 12.887 20.466 14.465C18.887 16.044 18 18.185 18 20.417H19.804C19.804 18.663 20.501 16.981 21.741 15.741C22.981 14.5 24.664 13.804 26.418 13.804Z" fill="#495055"/>
<path d="M28.8231 36.6499C27.7061 36.6499 26.6361 36.2069 25.8471 35.4179C25.0571 34.6279 24.6141 33.5579 24.6141 32.4419H22.8101C22.8101 34.0359 23.4441 35.5659 24.5711 36.6929C25.6991 37.8209 27.2281 38.4539 28.8231 38.4539C30.4171 38.4539 31.9471 37.8209 33.0741 36.6929C34.2021 35.5659 34.8351 34.0359 34.8351 32.4419H33.0311C33.0311 33.5579 32.5881 34.6279 31.7991 35.4179C31.0091 36.2069 29.9391 36.6499 28.8231 36.6499Z" fill="#495055"/>
<path d="M26.4181 19.815C26.8961 19.815 27.3551 20.005 27.6931 20.343C28.0311 20.682 28.2211 21.14 28.2211 21.619H30.0251C30.0251 20.662 29.6451 19.744 28.9691 19.068C28.2921 18.391 27.3741 18.011 26.4181 18.011C25.4611 18.011 24.5431 18.391 23.8671 19.068C23.1901 19.744 22.8101 20.662 22.8101 21.619H24.6141C24.6141 21.14 24.8041 20.682 25.1421 20.343C25.4801 20.005 25.9391 19.815 26.4181 19.815Z" fill="#495055"/>
<path d="M19.804 20.417H18V32.442H19.804V20.417Z" fill="#495055"/>
<path d="M24.6141 21.6169H22.8101V32.4399H24.6141V21.6169Z" fill="#495055"/>
<path d="M30.0252 21.6169H28.2222V32.4399H30.0252V21.6169Z" fill="#495055"/>
<path d="M34.8352 20.417H33.0312V32.442H34.8352V20.417Z" fill="#495055"/>
</svg>
