<svg width="24" height="25" viewBox="0 0 24 25" fill="none" xmlns="http://www.w3.org/2000/svg">
<g clip-path="url(#clip0_14_12156)">
<path d="M9.19194 1.72451C9.99624 1.12493 10.9585 0.767578 12 0.767578C12.1608 0.767578 12.3201 0.776117 12.4777 0.792871C12.5209 0.797467 12.5642 0.79748 12.6069 0.792976C12.7662 0.776171 12.9277 0.767578 13.0909 0.767578H13.8182C15.2365 0.767578 16.3864 1.91739 16.3864 3.33576V3.46208C16.3864 3.50263 16.3982 3.55974 16.4358 3.62828C16.9826 4.62719 17.2955 5.81694 17.2955 7.08576C17.2955 7.15328 17.2946 7.22127 17.2928 7.28969C17.2907 7.37234 17.3212 7.49772 17.4231 7.69885C17.6582 8.16261 17.762 8.7133 17.7042 9.26762C17.6986 9.2676 17.6931 9.26758 17.6875 9.26758H15.6875C13.6164 9.26758 11.9375 10.9465 11.9375 13.0176V20.0176C11.9375 21.4068 12.6929 22.6196 13.8154 23.2676H3C2.0335 23.2676 1.25 22.4841 1.25 21.5176V19.4791C1.25 17.7161 2.47811 16.1911 4.20062 15.8153L8.32601 14.9152C8.44084 14.8901 8.52272 14.7885 8.52272 14.6709V13.2627C8.52272 13.2175 8.5088 13.1599 8.47064 13.098C8.22697 12.703 8.0054 12.2792 7.8081 11.8403C7.77537 11.7675 7.69538 11.6722 7.4985 11.5091C6.93397 11.0417 6.49264 10.2724 6.34324 9.56821C6.20471 8.91532 6.29925 8.24647 6.57686 7.69885C6.67881 7.49772 6.70929 7.37234 6.70718 7.28968C6.70543 7.22127 6.70455 7.15328 6.70455 7.08576C6.70455 5.79559 7.02803 4.58708 7.59214 3.57783C7.61863 3.53044 7.64458 3.45952 7.66486 3.35278C7.73981 2.95832 7.89983 2.57742 8.1507 2.27872C8.38834 1.99576 8.74366 1.75104 9.19194 1.72451Z" fill="black"/>
<path fill-rule="evenodd" clip-rule="evenodd" d="M19.7498 21.8368C19.247 22.4065 18.5089 22.7676 17.6875 22.7676H15.6875C14.1687 22.7676 12.9375 21.5364 12.9375 20.0176V13.0176C12.9375 11.4988 14.1687 10.2676 15.6875 10.2676H17.6875C18.5089 10.2676 19.247 10.6287 19.7498 11.1984C20.0239 11.5089 19.9943 11.9829 19.6838 12.257C19.3732 12.5311 18.8993 12.5015 18.6252 12.191C18.395 11.9302 18.0607 11.7676 17.6875 11.7676H15.6875C14.9971 11.7676 14.4375 12.3272 14.4375 13.0176V20.0176C14.4375 20.708 14.9971 21.2676 15.6875 21.2676H17.6875C18.0607 21.2676 18.395 21.105 18.6252 20.8442C18.8993 20.5337 19.3732 20.5041 19.6838 20.7782C19.9943 21.0523 20.0239 21.5263 19.7498 21.8368Z" fill="black"/>
<path fill-rule="evenodd" clip-rule="evenodd" d="M22.7178 17.0479C23.0107 16.755 23.0107 16.2802 22.7178 15.9873L20.7178 13.9873C20.4249 13.6944 19.9501 13.6944 19.6572 13.9873C19.3643 14.2802 19.3643 14.755 19.6572 15.0479L21.6572 17.0479C21.9501 17.3408 22.4249 17.3408 22.7178 17.0479Z" fill="black"/>
<path fill-rule="evenodd" clip-rule="evenodd" d="M22.7178 15.9873C23.0107 16.2802 23.0107 16.755 22.7178 17.0479L20.7178 19.0479C20.4249 19.3408 19.9501 19.3408 19.6572 19.0479C19.3643 18.755 19.3643 18.2802 19.6572 17.9873L21.6572 15.9873C21.9501 15.6944 22.4249 15.6944 22.7178 15.9873Z" fill="black"/>
<path fill-rule="evenodd" clip-rule="evenodd" d="M15.9375 16.5176C15.9375 16.9318 16.2733 17.2676 16.6875 17.2676H21.6875C22.1017 17.2676 22.4375 16.9318 22.4375 16.5176C22.4375 16.1034 22.1017 15.7676 21.6875 15.7676H16.6875C16.2733 15.7676 15.9375 16.1034 15.9375 16.5176Z" fill="black"/>
</g>
<defs>
<clipPath id="clip0_14_12156">
<rect width="24" height="24" fill="white" transform="translate(-0.00012207 0.0175781)"/>
</clipPath>
</defs>
</svg>
