<svg width="40" height="41" viewBox="0 0 40 41" fill="none" xmlns="http://www.w3.org/2000/svg">
<circle cx="20" cy="20.5" r="19.5" fill="white" stroke="#51A7C2"/>
<path d="M21.3334 21.3333H20.8334V21.8333V28.5C20.8334 28.9572 20.4572 29.3333 20 29.3333C19.5428 29.3333 19.1667 28.9572 19.1667 28.5V21.8333V21.3333H18.6667H12C11.5428 21.3333 11.1667 20.9572 11.1667 20.5C11.1667 20.0428 11.5428 19.6667 12 19.6667H18.6667H19.1667V19.1667V12.5C19.1667 12.0428 19.5428 11.6667 20 11.6667C20.4572 11.6667 20.8334 12.0428 20.8334 12.5V19.1667V19.6667H21.3334H28C28.4572 19.6667 28.8334 20.0428 28.8334 20.5C28.8334 20.9572 28.4572 21.3333 28 21.3333H21.3334Z" fill="#51A7C2" stroke="#51A7C2"/>
</svg>
