


<svg width="24" height="23" viewBox="0 0 24 23" fill="none" xmlns="http://www.w3.org/2000/svg">
<path fill-rule="evenodd" clip-rule="evenodd" d="M19.5188 8.72969C18.7829 5.32657 15.5204 3.2922 12.2626 3.29688C9.00475 3.30157 5.74225 5.3547 5.01568 8.72969C4.49537 11.1391 5.94381 16.2391 7.21881 18.475C8.461 20.6547 10.1954 22.3047 12.2719 22.3047C13.6547 22.3047 14.8829 21.5641 15.9141 20.4297C15.1735 20.5281 14.4235 20.5891 13.7344 20.6219C13.2797 20.8844 12.7922 21.0438 12.2719 21.0438C10.5047 21.0438 9.10787 19.2297 8.32037 17.8516C7.62193 16.6281 7.08756 14.9734 6.736 13.6188C6.60475 13.1125 6.45475 12.4516 6.34225 11.7625C6.211 10.9234 6.59537 9.4422 7.66881 8.64063C8.70943 10.0328 10.5938 10.8578 13.5376 10.3938C12.4219 10.15 11.4516 9.74688 10.9407 9.30626C11.3626 9.37188 11.8079 9.40938 12.2719 9.40938C13.8047 9.40938 16.4626 8.60313 17.9766 10.0328C18.2297 10.7781 18.3469 11.725 18.0797 12.925C17.7891 14.2188 17.3485 15.5406 16.7907 16.7453C17.4282 16.5672 18.1266 16.2906 18.5626 15.775C19.5235 13.1359 19.8891 10.45 19.5188 8.72969Z" fill="white"/>
<path fill-rule="evenodd" clip-rule="evenodd" d="M4.45781 15.5734C4.15312 15.6906 3.51562 15.7516 3.19219 15.7516C1.73906 15.7516 0.5625 14.575 0.5625 13.1219C0.5625 11.9922 1.275 11.0266 2.27812 10.6562C2.30156 5.14844 6.77344 0.695312 12.2812 0.695312C17.7891 0.695312 22.2609 5.14844 22.2844 10.6562C23.2875 11.0266 24 11.9922 24 13.1219C24 14.7578 22.6406 15.8547 21.0516 15.7375C20.0344 18.8875 16.2656 19.2812 13.4437 19.375C13.2609 19.8484 12.8016 20.1859 12.2625 20.1859C11.5641 20.1859 10.9969 19.6187 10.9969 18.9203C10.9969 18.2219 11.5641 17.6547 12.2625 17.6547C12.7875 17.6547 13.2375 17.9734 13.4297 18.4281C15.5953 18.3578 18.7969 18.1328 19.9266 15.9719C20.1844 15.4797 20.25 14.9219 20.3719 14.3875L20.9062 12.0812C20.9813 11.6219 21.0141 11.1625 21.0141 10.6984C21.0141 5.875 17.1047 1.96094 12.2766 1.96094C7.45312 1.96094 3.53906 5.87031 3.53906 10.6984C3.53906 11.1625 3.57188 11.6219 3.64688 12.0812L4.45781 15.5734Z" fill="white"/>
</svg>
