<svg width="41" height="40" viewBox="0 0 41 40" fill="none" xmlns="http://www.w3.org/2000/svg">
<circle cx="20.9875" cy="20" r="19.5" fill="white" stroke="#51A7C2"/>
<path d="M21.3411 21.5319L20.9875 21.1783L20.634 21.5319L15.9199 26.2459C15.5966 26.5692 15.0647 26.5692 14.7414 26.2459C14.4181 25.9227 14.4181 25.3907 14.7414 25.0674L19.4555 20.3534L19.809 19.9998L19.4555 19.6463L14.7414 14.9322C14.4181 14.609 14.4181 14.077 14.7414 13.7537C15.0647 13.4304 15.5966 13.4304 15.9199 13.7537L20.634 18.4678L20.9875 18.8213L21.3411 18.4678L26.0551 13.7537C26.3784 13.4304 26.9103 13.4304 27.2336 13.7537C27.5569 14.077 27.5569 14.609 27.2336 14.9322L22.5196 19.6463L22.166 19.9998L22.5196 20.3534L27.2336 25.0674C27.5569 25.3907 27.5569 25.9227 27.2336 26.2459C26.9103 26.5692 26.3784 26.5692 26.0551 26.2459L21.3411 21.5319Z" fill="#51A7C2" stroke="#51A7C2"/>
</svg>
