<svg width="112" height="22" viewBox="0 0 112 22" fill="none" xmlns="http://www.w3.org/2000/svg">
<path d="M1.09302 8.40399H18.917" stroke="#51A7C2" stroke-width="1.5" stroke-linecap="round" stroke-linejoin="round"/>
<path d="M14.442 12.31H14.451" stroke="#51A7C2" stroke-width="1.5" stroke-linecap="round" stroke-linejoin="round"/>
<path d="M10.005 12.31H10.014" stroke="#51A7C2" stroke-width="1.5" stroke-linecap="round" stroke-linejoin="round"/>
<path d="M5.55798 12.31H5.56698" stroke="#51A7C2" stroke-width="1.5" stroke-linecap="round" stroke-linejoin="round"/>
<path d="M14.442 16.196H14.451" stroke="#51A7C2" stroke-width="1.5" stroke-linecap="round" stroke-linejoin="round"/>
<path d="M10.005 16.196H10.014" stroke="#51A7C2" stroke-width="1.5" stroke-linecap="round" stroke-linejoin="round"/>
<path d="M5.55798 16.196H5.56698" stroke="#51A7C2" stroke-width="1.5" stroke-linecap="round" stroke-linejoin="round"/>
<path d="M14.0439 1V4.291" stroke="#51A7C2" stroke-width="1.5" stroke-linecap="round" stroke-linejoin="round"/>
<path d="M5.96594 1V4.291" stroke="#51A7C2" stroke-width="1.5" stroke-linecap="round" stroke-linejoin="round"/>
<path fill-rule="evenodd" clip-rule="evenodd" d="M14.2383 2.57919H5.77096C2.83427 2.57919 1 4.21513 1 7.22222V16.2719C1 19.3262 2.83427 21 5.77096 21H14.229C17.175 21 19 19.3546 19 16.3475V7.22222C19.0092 4.21513 17.1842 2.57919 14.2383 2.57919Z" stroke="#51A7C2" stroke-width="1.5" stroke-linecap="round" stroke-linejoin="round"/>
<path d="M30.0745 16H27.9637L27.9776 14.9099H30.0745C30.7966 14.9099 31.3984 14.7595 31.8798 14.4586C32.3612 14.1531 32.7222 13.7272 32.963 13.181C33.2083 12.6302 33.3309 11.9867 33.3309 11.2507V10.6328C33.3309 10.0542 33.2615 9.54036 33.1226 9.09136C32.9838 8.63772 32.7801 8.25584 32.5116 7.9457C32.2432 7.63094 31.9145 7.39255 31.5257 7.23054C31.1415 7.06853 30.6994 6.98752 30.1995 6.98752H27.9221V5.89047H30.1995C30.8614 5.89047 31.4655 6.00156 32.0117 6.22375C32.5579 6.44131 33.0278 6.75839 33.4212 7.17499C33.8193 7.58696 34.1248 8.08688 34.3377 8.67476C34.5507 9.258 34.6571 9.9153 34.6571 10.6467V11.2507C34.6571 11.9821 34.5507 12.6417 34.3377 13.2296C34.1248 13.8128 33.817 14.3104 33.4143 14.7224C33.0162 15.1344 32.5348 15.4515 31.9701 15.6737C31.41 15.8912 30.7781 16 30.0745 16ZM28.6789 5.89047V16H27.3388V5.89047H28.6789ZM40.9062 14.7155V10.848C40.9062 10.5518 40.846 10.2949 40.7256 10.0773C40.6099 9.85513 40.434 9.68386 40.1979 9.56351C39.9619 9.44315 39.6702 9.38298 39.3231 9.38298C38.999 9.38298 38.7144 9.43853 38.469 9.54962C38.2283 9.66071 38.0385 9.80652 37.8997 9.98705C37.7654 10.1676 37.6983 10.362 37.6983 10.5703H36.4138C36.4138 10.3018 36.4832 10.0357 36.6221 9.77181C36.761 9.50796 36.96 9.26957 37.2192 9.05664C37.4831 8.83908 37.7978 8.66781 38.1635 8.54283C38.5338 8.41322 38.9458 8.34842 39.3994 8.34842C39.9457 8.34842 40.4271 8.441 40.8437 8.62615C41.2649 8.81131 41.5935 9.09136 41.8296 9.4663C42.0703 9.83661 42.1907 10.3018 42.1907 10.8619V14.3614C42.1907 14.6113 42.2115 14.8775 42.2532 15.1599C42.2995 15.4422 42.3666 15.6852 42.4545 15.8889V16H41.1145C41.0496 15.8519 40.9987 15.6551 40.9617 15.4098C40.9247 15.1599 40.9062 14.9284 40.9062 14.7155ZM41.1283 11.4452L41.1422 12.3478H39.8438C39.4781 12.3478 39.1518 12.3779 38.8648 12.4381C38.5778 12.4936 38.3371 12.5792 38.1427 12.695C37.9483 12.8107 37.8002 12.9565 37.6983 13.1324C37.5965 13.3037 37.5456 13.505 37.5456 13.7365C37.5456 13.9725 37.5988 14.1878 37.7053 14.3822C37.8117 14.5766 37.9714 14.7317 38.1844 14.8474C38.4019 14.9585 38.6681 15.014 38.9828 15.014C39.3763 15.014 39.7235 14.9307 40.0243 14.7641C40.3252 14.5974 40.5636 14.3938 40.7395 14.1531C40.92 13.9124 41.0172 13.6786 41.0311 13.4518L41.5797 14.0697C41.5473 14.2642 41.4593 14.4794 41.3158 14.7155C41.1723 14.9516 40.9802 15.1784 40.7395 15.3959C40.5034 15.6089 40.2211 15.7871 39.8924 15.9306C39.5684 16.0694 39.2027 16.1389 38.7954 16.1389C38.2862 16.1389 37.8395 16.0393 37.4553 15.8403C37.0757 15.6413 36.7795 15.3751 36.5666 15.0418C36.3583 14.7039 36.2541 14.3267 36.2541 13.91C36.2541 13.5073 36.3328 13.1532 36.4902 12.8477C36.6476 12.5376 36.8744 12.2807 37.1706 12.077C37.4669 11.8687 37.8233 11.7113 38.2399 11.6049C38.6565 11.4984 39.1217 11.4452 39.6355 11.4452H41.1283ZM47.3565 8.48729V9.47324H43.2947V8.48729H47.3565ZM44.6695 6.66118H45.954V14.1392C45.954 14.3938 45.9933 14.5859 46.072 14.7155C46.1507 14.8451 46.2525 14.9307 46.3775 14.9724C46.5025 15.014 46.6367 15.0349 46.7802 15.0349C46.8867 15.0349 46.9978 15.0256 47.1135 15.0071C47.2339 14.984 47.3241 14.9654 47.3843 14.9516L47.3913 16C47.2894 16.0324 47.1552 16.0625 46.9885 16.0903C46.8265 16.1227 46.6298 16.1389 46.3983 16.1389C46.0836 16.1389 45.7943 16.0764 45.5304 15.9514C45.2666 15.8264 45.056 15.6181 44.8986 15.3265C44.7458 15.0302 44.6695 14.6322 44.6695 14.1322V6.66118ZM51.9808 16.1389C51.4577 16.1389 50.9833 16.0509 50.5574 15.875C50.1362 15.6945 49.7728 15.4422 49.4673 15.1182C49.1664 14.7942 48.935 14.41 48.773 13.9656C48.611 13.5212 48.53 13.0352 48.53 12.5075V12.2159C48.53 11.6049 48.6202 11.061 48.8008 10.5842C48.9813 10.1028 49.2266 9.69543 49.5367 9.36215C49.8469 9.02887 50.1987 8.77659 50.5921 8.60532C50.9856 8.43405 51.3929 8.34842 51.8142 8.34842C52.3511 8.34842 52.814 8.441 53.2028 8.62615C53.5963 8.81131 53.918 9.07053 54.168 9.40381C54.4179 9.73246 54.6031 10.1213 54.7234 10.5703C54.8438 11.0147 54.904 11.5007 54.904 12.0284V12.6047H49.2937V11.5562H53.6194V11.459C53.6009 11.1258 53.5315 10.8017 53.4111 10.487C53.2954 10.1722 53.1103 9.91299 52.8557 9.70932C52.6011 9.50564 52.2539 9.40381 51.8142 9.40381C51.5226 9.40381 51.2541 9.4663 51.0087 9.59128C50.7634 9.71163 50.5528 9.89216 50.3769 10.1329C50.201 10.3736 50.0644 10.6675 49.9672 11.0147C49.87 11.3618 49.8214 11.7622 49.8214 12.2159V12.5075C49.8214 12.8639 49.87 13.1995 49.9672 13.5143C50.0691 13.8244 50.2149 14.0975 50.4047 14.3336C50.5991 14.5697 50.8328 14.7548 51.1059 14.8891C51.3837 15.0233 51.6984 15.0904 52.0502 15.0904C52.5039 15.0904 52.8881 14.9978 53.2028 14.8127C53.5176 14.6275 53.793 14.3799 54.0291 14.0697L54.8068 14.6877C54.6447 14.933 54.4388 15.1668 54.1888 15.389C53.9388 15.6112 53.631 15.7917 53.2653 15.9306C52.9043 16.0694 52.4761 16.1389 51.9808 16.1389ZM60.1254 5.89047H63.4721C64.2312 5.89047 64.8723 6.00619 65.3954 6.23764C65.9231 6.46908 66.3235 6.81162 66.5966 7.26525C66.8743 7.71426 67.0132 8.26741 67.0132 8.92472C67.0132 9.38761 66.9183 9.81115 66.7285 10.1954C66.5434 10.5749 66.2749 10.8989 65.9231 11.1674C65.5759 11.4313 65.1593 11.628 64.6733 11.7576L64.2983 11.9034H61.153L61.1391 10.8133H63.5137C63.9951 10.8133 64.3955 10.73 64.7149 10.5633C65.0343 10.3921 65.275 10.1629 65.437 9.87596C65.5991 9.58896 65.6801 9.27188 65.6801 8.92472C65.6801 8.53589 65.6037 8.19566 65.4509 7.90404C65.2982 7.61242 65.0575 7.38792 64.7288 7.23054C64.4048 7.06853 63.9859 6.98752 63.4721 6.98752H61.4654V16H60.1254V5.89047ZM66.0342 16L63.5762 11.4174L64.9718 11.4104L67.4645 15.9167V16H66.0342ZM73.1233 14.7155V10.848C73.1233 10.5518 73.0632 10.2949 72.9428 10.0773C72.8271 9.85513 72.6512 9.68386 72.4151 9.56351C72.179 9.44315 71.8874 9.38298 71.5403 9.38298C71.2162 9.38298 70.9316 9.43853 70.6862 9.54962C70.4455 9.66071 70.2557 9.80652 70.1169 9.98705C69.9826 10.1676 69.9155 10.362 69.9155 10.5703H68.631C68.631 10.3018 68.7004 10.0357 68.8393 9.77181C68.9782 9.50796 69.1772 9.26957 69.4364 9.05664C69.7003 8.83908 70.015 8.66781 70.3807 8.54283C70.751 8.41322 71.163 8.34842 71.6166 8.34842C72.1628 8.34842 72.6443 8.441 73.0609 8.62615C73.4821 8.81131 73.8107 9.09136 74.0468 9.4663C74.2875 9.83661 74.4079 10.3018 74.4079 10.8619V14.3614C74.4079 14.6113 74.4287 14.8775 74.4704 15.1599C74.5166 15.4422 74.5838 15.6852 74.6717 15.8889V16H73.3316C73.2668 15.8519 73.2159 15.6551 73.1789 15.4098C73.1419 15.1599 73.1233 14.9284 73.1233 14.7155ZM73.3455 11.4452L73.3594 12.3478H72.061C71.6953 12.3478 71.369 12.3779 71.082 12.4381C70.795 12.4936 70.5543 12.5792 70.3599 12.695C70.1655 12.8107 70.0173 12.9565 69.9155 13.1324C69.8137 13.3037 69.7628 13.505 69.7628 13.7365C69.7628 13.9725 69.816 14.1878 69.9225 14.3822C70.0289 14.5766 70.1886 14.7317 70.4015 14.8474C70.6191 14.9585 70.8853 15.014 71.2 15.014C71.5935 15.014 71.9407 14.9307 72.2415 14.7641C72.5424 14.5974 72.7808 14.3938 72.9567 14.1531C73.1372 13.9124 73.2344 13.6786 73.2483 13.4518L73.7968 14.0697C73.7644 14.2642 73.6765 14.4794 73.533 14.7155C73.3895 14.9516 73.1974 15.1784 72.9567 15.3959C72.7206 15.6089 72.4383 15.7871 72.1096 15.9306C71.7856 16.0694 71.4199 16.1389 71.0126 16.1389C70.5034 16.1389 70.0567 16.0393 69.6725 15.8403C69.2929 15.6413 68.9967 15.3751 68.7837 15.0418C68.5754 14.7039 68.4713 14.3267 68.4713 13.91C68.4713 13.5073 68.55 13.1532 68.7074 12.8477C68.8647 12.5376 69.0916 12.2807 69.3878 12.077C69.6841 11.8687 70.0405 11.7113 70.4571 11.6049C70.8737 11.4984 71.3389 11.4452 71.8527 11.4452H73.3455ZM77.7129 10.0912V16H76.4284V8.48729H77.6435L77.7129 10.0912ZM77.4074 11.959L76.8728 11.9381C76.8774 11.4243 76.9538 10.9499 77.1019 10.5147C77.25 10.075 77.4583 9.69312 77.7268 9.36909C77.9953 9.04507 78.3147 8.79511 78.685 8.61921C79.0599 8.43868 79.4742 8.34842 79.9278 8.34842C80.2981 8.34842 80.6314 8.39934 80.9277 8.50117C81.2239 8.59838 81.4762 8.75576 81.6845 8.97332C81.8974 9.19088 82.0594 9.47324 82.1705 9.82041C82.2816 10.1629 82.3372 10.5819 82.3372 11.0772V16H81.0457V11.0633C81.0457 10.6698 80.9879 10.355 80.8721 10.119C80.7564 9.87827 80.5875 9.70469 80.3653 9.59822C80.1431 9.48713 79.87 9.43158 79.5459 9.43158C79.2266 9.43158 78.9349 9.4987 78.6711 9.63294C78.4119 9.76718 78.1874 9.95233 77.9976 10.1884C77.8124 10.4245 77.6666 10.6953 77.5601 11.0008C77.4583 11.3017 77.4074 11.6211 77.4074 11.959ZM89.1556 8.48729H90.322V15.8403C90.322 16.5022 90.1878 17.067 89.9193 17.5345C89.6509 18.002 89.2759 18.3561 88.7945 18.5968C88.3177 18.8421 87.7669 18.9648 87.142 18.9648C86.8828 18.9648 86.5773 18.9232 86.2255 18.8398C85.8783 18.7611 85.5358 18.6246 85.1978 18.4302C84.8646 18.2404 84.5845 17.9835 84.3577 17.6595L85.0312 16.8957C85.346 17.2753 85.6746 17.5391 86.0172 17.6872C86.3643 17.8354 86.7069 17.9094 87.0448 17.9094C87.4521 17.9094 87.8039 17.833 88.1002 17.6803C88.3964 17.5275 88.6255 17.3007 88.7876 16.9998C88.9542 16.7036 89.0375 16.3379 89.0375 15.9028V10.1398L89.1556 8.48729ZM83.9828 12.327V12.1812C83.9828 11.6072 84.0499 11.0864 84.1841 10.6189C84.323 10.1467 84.5197 9.74172 84.7743 9.40381C85.0335 9.0659 85.346 8.80668 85.7117 8.62615C86.0773 8.441 86.4893 8.34842 86.9476 8.34842C87.4197 8.34842 87.8317 8.43174 88.1835 8.59838C88.5399 8.76039 88.8408 8.99878 89.0861 9.31354C89.3361 9.62368 89.5328 9.99862 89.6763 10.4384C89.8198 10.8781 89.9193 11.3757 89.9749 11.9312V12.57C89.924 13.1208 89.8244 13.6161 89.6763 14.0559C89.5328 14.4956 89.3361 14.8705 89.0861 15.1807C88.8408 15.4908 88.5399 15.7292 88.1835 15.8958C87.8271 16.0579 87.4105 16.1389 86.9337 16.1389C86.4847 16.1389 86.0773 16.044 85.7117 15.8542C85.3506 15.6644 85.0405 15.3982 84.7812 15.0557C84.522 14.7132 84.323 14.3104 84.1841 13.8476C84.0499 13.38 83.9828 12.8732 83.9828 12.327ZM85.2673 12.1812V12.327C85.2673 12.7019 85.3043 13.0537 85.3784 13.3824C85.4571 13.711 85.5751 14.0003 85.7325 14.2503C85.8945 14.5002 86.1005 14.697 86.3504 14.8405C86.6004 14.9793 86.899 15.0488 87.2461 15.0488C87.672 15.0488 88.0238 14.9585 88.3015 14.778C88.5793 14.5974 88.7991 14.3591 88.9611 14.0628C89.1278 13.7666 89.2574 13.4448 89.35 13.0977V11.4243C89.2991 11.1697 89.2204 10.9244 89.1139 10.6883C89.0121 10.4476 88.8778 10.2347 88.7112 10.0495C88.5492 9.85976 88.3478 9.70932 88.1071 9.59822C87.8664 9.48713 87.584 9.43158 87.26 9.43158C86.9082 9.43158 86.605 9.50564 86.3504 9.65377C86.1005 9.79727 85.8945 9.99631 85.7325 10.2509C85.5751 10.5009 85.4571 10.7925 85.3784 11.1258C85.3043 11.4544 85.2673 11.8062 85.2673 12.1812ZM95.3907 16.1389C94.8676 16.1389 94.3932 16.0509 93.9673 15.875C93.5461 15.6945 93.1827 15.4422 92.8772 15.1182C92.5763 14.7942 92.3449 14.41 92.1829 13.9656C92.0209 13.5212 91.9398 13.0352 91.9398 12.5075V12.2159C91.9398 11.6049 92.0301 11.061 92.2106 10.5842C92.3912 10.1028 92.6365 9.69543 92.9466 9.36215C93.2568 9.02887 93.6086 8.77659 94.002 8.60532C94.3955 8.43405 94.8028 8.34842 95.2241 8.34842C95.761 8.34842 96.2239 8.441 96.6127 8.62615C97.0062 8.81131 97.3279 9.07053 97.5779 9.40381C97.8278 9.73246 98.013 10.1213 98.1333 10.5703C98.2537 11.0147 98.3138 11.5007 98.3138 12.0284V12.6047H92.7036V11.5562H97.0293V11.459C97.0108 11.1258 96.9414 10.8017 96.821 10.487C96.7053 10.1722 96.5201 9.91299 96.2656 9.70932C96.011 9.50564 95.6638 9.40381 95.2241 9.40381C94.9324 9.40381 94.664 9.4663 94.4186 9.59128C94.1733 9.71163 93.9627 9.89216 93.7868 10.1329C93.6109 10.3736 93.4743 10.6675 93.3771 11.0147C93.2799 11.3618 93.2313 11.7622 93.2313 12.2159V12.5075C93.2313 12.8639 93.2799 13.1995 93.3771 13.5143C93.479 13.8244 93.6248 14.0975 93.8146 14.3336C94.009 14.5697 94.2427 14.7548 94.5158 14.8891C94.7936 15.0233 95.1083 15.0904 95.4601 15.0904C95.9138 15.0904 96.298 14.9978 96.6127 14.8127C96.9275 14.6275 97.2029 14.3799 97.439 14.0697L98.2166 14.6877C98.0546 14.933 97.8486 15.1668 97.5987 15.389C97.3487 15.6112 97.0409 15.7917 96.6752 15.9306C96.3142 16.0694 95.886 16.1389 95.3907 16.1389Z" fill="#51A7C2"/>
<path d="M111 9L107 13L103 9" stroke="#51A7C2" stroke-width="2"/>
</svg>
