<svg width="30" height="31" viewBox="0 0 30 31" fill="none" xmlns="http://www.w3.org/2000/svg">
<circle cx="15" cy="15.2666" r="14.5" fill="white" stroke="#51A7C2"/>
<path d="M22.5 16.9333C22.279 16.9333 22.067 17.0211 21.9108 17.1774C21.7545 17.3336 21.6667 17.5456 21.6667 17.7666V21.0999C21.6667 21.321 21.5789 21.5329 21.4226 21.6892C21.2663 21.8455 21.0544 21.9333 20.8334 21.9333H9.16669C8.94567 21.9333 8.73371 21.8455 8.57743 21.6892C8.42115 21.5329 8.33335 21.321 8.33335 21.0999V17.7666C8.33335 17.5456 8.24556 17.3336 8.08928 17.1774C7.933 17.0211 7.72103 16.9333 7.50002 16.9333C7.27901 16.9333 7.06704 17.0211 6.91076 17.1774C6.75448 17.3336 6.66669 17.5456 6.66669 17.7666V21.0999C6.66669 21.763 6.93008 22.3989 7.39892 22.8677C7.86776 23.3366 8.50365 23.5999 9.16669 23.5999H20.8334C21.4964 23.5999 22.1323 23.3366 22.6011 22.8677C23.07 22.3989 23.3334 21.763 23.3334 21.0999V17.7666C23.3334 17.5456 23.2456 17.3336 23.0893 17.1774C22.933 17.0211 22.721 16.9333 22.5 16.9333ZM14.4084 18.3583C14.4876 18.4341 14.5811 18.4936 14.6834 18.5333C14.7831 18.5774 14.891 18.6001 15 18.6001C15.1091 18.6001 15.2169 18.5774 15.3167 18.5333C15.419 18.4936 15.5124 18.4341 15.5917 18.3583L18.925 15.0249C19.0819 14.868 19.1701 14.6552 19.1701 14.4333C19.1701 14.2114 19.0819 13.9985 18.925 13.8416C18.7681 13.6847 18.5553 13.5965 18.3334 13.5965C18.1114 13.5965 17.8986 13.6847 17.7417 13.8416L15.8334 15.7583V7.76661C15.8334 7.5456 15.7456 7.33364 15.5893 7.17736C15.433 7.02108 15.221 6.93328 15 6.93328C14.779 6.93328 14.567 7.02108 14.4108 7.17736C14.2545 7.33364 14.1667 7.5456 14.1667 7.76661V15.7583L12.2584 13.8416C12.1807 13.7639 12.0884 13.7023 11.9869 13.6602C11.8854 13.6182 11.7766 13.5965 11.6667 13.5965C11.5568 13.5965 11.448 13.6182 11.3465 13.6602C11.245 13.7023 11.1527 13.7639 11.075 13.8416C10.9973 13.9193 10.9357 14.0116 10.8936 14.1131C10.8516 14.2146 10.8299 14.3234 10.8299 14.4333C10.8299 14.5432 10.8516 14.652 10.8936 14.7535C10.9357 14.855 10.9973 14.9472 11.075 15.0249L14.4084 18.3583Z" fill="#51A7C2"/>
</svg>
