<svg width="15" height="19" viewBox="0 0 15 19" fill="none" xmlns="http://www.w3.org/2000/svg">
<path d="M4.76348 9.5C4.76348 10.0404 4.54881 10.5586 4.16671 10.9407C3.7846 11.3228 3.26636 11.5375 2.72598 11.5375C2.1856 11.5375 1.66735 11.3228 1.28525 10.9407C0.903141 10.5586 0.688477 10.0404 0.688477 9.5C0.688477 8.95962 0.903141 8.44138 1.28525 8.05927C1.66735 7.67717 2.1856 7.4625 2.72598 7.4625C3.26636 7.4625 3.7846 7.67717 4.16671 8.05927C4.54881 8.44138 4.76348 8.95962 4.76348 9.5ZM4.76348 2.1625C4.76348 2.70288 4.54881 3.22113 4.16671 3.60323C3.7846 3.98534 3.26636 4.2 2.72598 4.2C2.1856 4.2 1.66735 3.98534 1.28525 3.60323C0.903141 3.22113 0.688477 2.70288 0.688477 2.1625C0.688477 1.62212 0.903141 1.10388 1.28525 0.72177C1.66735 0.339665 2.1856 0.125 2.72598 0.125C3.26636 0.125 3.7846 0.339665 4.16671 0.72177C4.54881 1.10388 4.76348 1.62212 4.76348 2.1625ZM4.76348 16.8367C4.76348 17.3771 4.54881 17.8953 4.16671 18.2775C3.7846 18.6596 3.26636 18.8742 2.72598 18.8742C2.1856 18.8742 1.66735 18.6596 1.28525 18.2775C0.903141 17.8953 0.688477 17.3771 0.688477 16.8367C0.688477 16.2963 0.903141 15.7781 1.28525 15.396C1.66735 15.0139 2.1856 14.7992 2.72598 14.7992C3.26636 14.7992 3.7846 15.0139 4.16671 15.396C4.54881 15.7781 4.76348 16.2963 4.76348 16.8367Z" fill="#999999"/>
<path d="M14.9197 9.5C14.9197 10.0404 14.7051 10.5586 14.323 10.9407C13.9409 11.3228 13.4226 11.5375 12.8822 11.5375C12.3418 11.5375 11.8236 11.3228 11.4415 10.9407C11.0594 10.5586 10.8447 10.0404 10.8447 9.5C10.8447 8.95962 11.0594 8.44138 11.4415 8.05927C11.8236 7.67717 12.3418 7.4625 12.8822 7.4625C13.4226 7.4625 13.9409 7.67717 14.323 8.05927C14.7051 8.44138 14.9197 8.95962 14.9197 9.5ZM14.9197 2.1625C14.9197 2.70288 14.7051 3.22113 14.323 3.60323C13.9409 3.98534 13.4226 4.2 12.8822 4.2C12.3418 4.2 11.8236 3.98534 11.4415 3.60323C11.0594 3.22113 10.8447 2.70288 10.8447 2.1625C10.8447 1.62212 11.0594 1.10388 11.4415 0.72177C11.8236 0.339665 12.3418 0.125 12.8822 0.125C13.4226 0.125 13.9409 0.339665 14.323 0.72177C14.7051 1.10388 14.9197 1.62212 14.9197 2.1625ZM14.9197 16.8367C14.9197 17.3771 14.7051 17.8953 14.323 18.2775C13.9409 18.6596 13.4226 18.8742 12.8822 18.8742C12.3418 18.8742 11.8236 18.6596 11.4415 18.2775C11.0594 17.8953 10.8447 17.3771 10.8447 16.8367C10.8447 16.2963 11.0594 15.7781 11.4415 15.396C11.8236 15.0139 12.3418 14.7992 12.8822 14.7992C13.4226 14.7992 13.9409 15.0139 14.323 15.396C14.7051 15.7781 14.9197 16.2963 14.9197 16.8367Z" fill="#999999"/>
</svg>
