<svg width="24" height="24" viewBox="0 0 24 24" fill="none" xmlns="http://www.w3.org/2000/svg">
<path d="M23.6501 22.1498L12.9001 0.599805C12.7501 0.249805 12.4001 0.0498047 12.0001 0.0498047C11.6501 0.0498047 11.3001 0.249805 11.1001 0.599805L0.350086 22.1498C0.200086 22.4498 0.200086 22.7998 0.400086 23.0998C0.600086 23.3998 0.900086 23.5498 1.25009 23.5498H22.8001C23.1501 23.5498 23.4501 23.3498 23.6501 23.0998C23.8001 22.7998 23.8001 22.4498 23.6501 22.1498ZM13.0001 18.8998C13.0001 19.4498 12.5501 19.8998 12.0001 19.8998C11.4501 19.8998 11.0001 19.4498 11.0001 18.8998V18.5998C11.0001 18.0498 11.4501 17.5998 12.0001 17.5998C12.5501 17.5998 13.0001 18.0498 13.0001 18.5998V18.8998ZM13.0001 15.2998C13.0001 15.8498 12.5501 16.2998 12.0001 16.2998C11.4501 16.2998 11.0001 15.8498 11.0001 15.2998V9.2498C11.0001 8.6998 11.4501 8.2498 12.0001 8.2498C12.5501 8.2498 13.0001 8.6998 13.0001 9.2498V15.2998Z" fill="#B72A35"/>
</svg>
