<svg width="26" height="27" viewBox="0 0 26 27" fill="none" xmlns="http://www.w3.org/2000/svg">
<path d="M13.9852 0.583838C14.6956 0.570921 15.3685 0.827963 15.871 1.32009C16.376 1.79671 16.646 2.45675 16.646 3.15425C16.646 4.57509 17.8214 5.72596 19.2823 5.72596C19.7331 5.72596 20.1852 5.5955 20.5869 5.37592C21.8385 4.70296 23.4014 5.1305 24.1118 6.33175L24.9914 7.843C25.211 8.2305 25.3389 8.66967 25.3389 9.12175C25.3389 10.0388 24.8364 10.8926 24.0227 11.3434C23.621 11.563 23.2852 11.8988 23.0539 12.2876C22.3681 13.5005 22.7956 15.0363 24.0227 15.7364C25.2614 16.4455 25.6877 17.9968 24.9914 19.2226L24.1118 20.6835C23.6468 21.483 22.7814 21.9751 21.8514 21.9751C21.3864 21.9751 20.9214 21.8576 20.5352 21.6251C20.1206 21.4055 19.6698 21.2763 19.2164 21.2763C18.5189 21.2763 17.8472 21.5489 17.3577 22.0384C16.8527 22.5176 16.5814 23.1751 16.5814 23.8597C16.5814 25.2676 15.4073 26.4172 13.9464 26.4172H12.1781C11.4793 26.4172 10.8206 26.133 10.3427 25.6551C9.85182 25.1643 9.59478 24.5184 9.59478 23.8468C9.59478 22.4259 8.43098 21.2763 6.97269 21.2763C6.49348 21.2763 6.02848 21.4055 5.62807 21.6522C5.02098 21.9868 4.29765 22.0772 3.62598 21.9093C2.95432 21.7284 2.37307 21.2893 2.02432 20.708L1.19894 19.2484C0.81015 18.6426 0.6939 17.918 0.876025 17.2334C1.05557 16.5488 1.52186 15.9676 2.15348 15.6188C2.55519 15.3993 2.88973 15.0763 3.12223 14.6759C3.79519 13.4618 3.36765 11.9376 2.15348 11.2272C0.9264 10.5297 0.50015 8.99259 1.19894 7.77842L2.02432 6.33175C2.37307 5.72596 2.95432 5.2855 3.6389 5.10467C4.32478 4.92384 5.04682 5.02588 5.6539 5.37592C6.06723 5.5955 6.51932 5.71175 6.97269 5.71175C7.67019 5.71175 8.34057 5.4405 8.8314 4.96259C9.32223 4.48467 9.59478 3.82592 9.59478 3.15425C9.59478 1.73342 10.7689 0.583838 12.2285 0.583838H13.9852ZM14.5031 10.2468C13.1469 9.69009 11.5827 9.98717 10.5364 11.0076C9.50307 12.0151 9.18015 13.5522 9.74848 14.871C10.3052 16.2001 11.6214 17.0655 13.0939 17.0655H13.1081C14.0769 17.0784 14.981 16.7051 15.6643 16.0322C16.3489 15.3734 16.7364 14.4693 16.7364 13.5263C16.7493 12.0926 15.8581 10.788 14.5031 10.2468Z" fill="white"/>
</svg>
