<svg width="78" height="22" viewBox="0 0 78 22" fill="none" xmlns="http://www.w3.org/2000/svg">
    <path d="M1.09302 8.40399H18.917" stroke="#51A7C2" stroke-width="1.5" stroke-linecap="round" stroke-linejoin="round"/>
    <path d="M14.442 12.31H14.451" stroke="#51A7C2" stroke-width="1.5" stroke-linecap="round" stroke-linejoin="round"/>
    <path d="M10.005 12.31H10.014" stroke="#51A7C2" stroke-width="1.5" stroke-linecap="round" stroke-linejoin="round"/>
    <path d="M5.55798 12.31H5.56698" stroke="#51A7C2" stroke-width="1.5" stroke-linecap="round" stroke-linejoin="round"/>
    <path d="M14.442 16.196H14.451" stroke="#51A7C2" stroke-width="1.5" stroke-linecap="round" stroke-linejoin="round"/>
    <path d="M10.005 16.196H10.014" stroke="#51A7C2" stroke-width="1.5" stroke-linecap="round" stroke-linejoin="round"/>
    <path d="M5.55798 16.196H5.56698" stroke="#51A7C2" stroke-width="1.5" stroke-linecap="round" stroke-linejoin="round"/>
    <path d="M14.0439 1V4.291" stroke="#51A7C2" stroke-width="1.5" stroke-linecap="round" stroke-linejoin="round"/>
    <path d="M5.96594 1V4.291" stroke="#51A7C2" stroke-width="1.5" stroke-linecap="round" stroke-linejoin="round"/>
    <path fill-rule="evenodd" clip-rule="evenodd" d="M14.2383 2.57919H5.77096C2.83427 2.57919 1 4.21513 1 7.22222V16.2719C1 19.3262 2.83427 21 5.77096 21H14.229C17.175 21 19 19.3546 19 16.3475V7.22222C19.0092 4.21513 17.1842 2.57919 14.2383 2.57919Z" stroke="#51A7C2" stroke-width="1.5" stroke-linecap="round" stroke-linejoin="round"/>
    <path d="M31.2661 5.89047V16H29.9469V5.89047H31.2661ZM34.5156 5.89047V6.98752H26.7043V5.89047H34.5156ZM34.7864 12.327V12.1673C34.7864 11.6257 34.8651 11.1234 35.0225 10.6606C35.1799 10.193 35.4067 9.78801 35.7029 9.44547C35.9992 9.0983 36.3579 8.82982 36.7791 8.64004C37.2004 8.44562 37.6725 8.34842 38.1956 8.34842C38.7233 8.34842 39.1977 8.44562 39.619 8.64004C40.0448 8.82982 40.4059 9.0983 40.7021 9.44547C41.003 9.78801 41.2321 10.193 41.3895 10.6606C41.5469 11.1234 41.6256 11.6257 41.6256 12.1673V12.327C41.6256 12.8685 41.5469 13.3708 41.3895 13.8337C41.2321 14.2966 41.003 14.7016 40.7021 15.0488C40.4059 15.3913 40.0471 15.6598 39.6259 15.8542C39.2093 16.044 38.7372 16.1389 38.2095 16.1389C37.6818 16.1389 37.2073 16.044 36.7861 15.8542C36.3649 15.6598 36.0038 15.3913 35.7029 15.0488C35.4067 14.7016 35.1799 14.2966 35.0225 13.8337C34.8651 13.3708 34.7864 12.8685 34.7864 12.327ZM36.0709 12.1673V12.327C36.0709 12.7019 36.1149 13.056 36.2028 13.3893C36.2908 13.7179 36.4227 14.0096 36.5986 14.2642C36.7791 14.5187 37.0036 14.7201 37.2721 14.8682C37.5406 15.0117 37.853 15.0835 38.2095 15.0835C38.5613 15.0835 38.8691 15.0117 39.1329 14.8682C39.4014 14.7201 39.6236 14.5187 39.7995 14.2642C39.9754 14.0096 40.1073 13.7179 40.1953 13.3893C40.2879 13.056 40.3341 12.7019 40.3341 12.327V12.1673C40.3341 11.797 40.2879 11.4475 40.1953 11.1188C40.1073 10.7855 39.9731 10.4916 39.7926 10.237C39.6167 9.97779 39.3945 9.77412 39.126 9.626C38.8621 9.47787 38.552 9.40381 38.1956 9.40381C37.8438 9.40381 37.5337 9.47787 37.2652 9.626C37.0013 9.77412 36.7791 9.97779 36.5986 10.237C36.4227 10.4916 36.2908 10.7855 36.2028 11.1188C36.1149 11.4475 36.0709 11.797 36.0709 12.1673ZM47.9718 14.5419V5.335H49.2633V16H48.0829L47.9718 14.5419ZM42.9171 12.327V12.1812C42.9171 11.6072 42.9865 11.0864 43.1254 10.6189C43.2689 10.1467 43.4702 9.74172 43.7294 9.40381C43.9933 9.0659 44.3057 8.80668 44.6668 8.62615C45.0325 8.441 45.4398 8.34842 45.8888 8.34842C46.361 8.34842 46.773 8.43174 47.1247 8.59838C47.4812 8.76039 47.7821 8.99878 48.0274 9.31354C48.2773 9.62368 48.4741 9.99862 48.6176 10.4384C48.7611 10.8781 48.8606 11.3757 48.9161 11.9312V12.57C48.8652 13.1208 48.7657 13.6161 48.6176 14.0559C48.4741 14.4956 48.2773 14.8705 48.0274 15.1807C47.7821 15.4908 47.4812 15.7292 47.1247 15.8958C46.7683 16.0579 46.3517 16.1389 45.8749 16.1389C45.4352 16.1389 45.0325 16.044 44.6668 15.8542C44.3057 15.6644 43.9933 15.3982 43.7294 15.0557C43.4702 14.7132 43.2689 14.3104 43.1254 13.8476C42.9865 13.38 42.9171 12.8732 42.9171 12.327ZM44.2085 12.1812V12.327C44.2085 12.7019 44.2456 13.0537 44.3196 13.3824C44.3983 13.711 44.5187 14.0003 44.6807 14.2503C44.8427 14.5002 45.0487 14.697 45.2986 14.8405C45.5486 14.9793 45.8472 15.0488 46.1943 15.0488C46.6202 15.0488 46.9697 14.9585 47.2428 14.778C47.5205 14.5974 47.7427 14.3591 47.9093 14.0628C48.076 13.7666 48.2056 13.4448 48.2982 13.0977V11.4243C48.2426 11.1697 48.1616 10.9244 48.0552 10.6883C47.9533 10.4476 47.8191 10.2347 47.6524 10.0495C47.4904 9.85976 47.2891 9.70932 47.0484 9.59822C46.8123 9.48713 46.5322 9.43158 46.2082 9.43158C45.8564 9.43158 45.5532 9.50564 45.2986 9.65377C45.0487 9.79727 44.8427 9.99631 44.6807 10.2509C44.5187 10.5009 44.3983 10.7925 44.3196 11.1258C44.2456 11.4544 44.2085 11.8062 44.2085 12.1812ZM55.6929 14.7155V10.848C55.6929 10.5518 55.6327 10.2949 55.5123 10.0773C55.3966 9.85513 55.2207 9.68386 54.9846 9.56351C54.7486 9.44315 54.4569 9.38298 54.1098 9.38298C53.7857 9.38298 53.5011 9.43853 53.2557 9.54962C53.015 9.66071 52.8252 9.80652 52.6864 9.98705C52.5521 10.1676 52.485 10.362 52.485 10.5703H51.2005C51.2005 10.3018 51.2699 10.0357 51.4088 9.77181C51.5477 9.50796 51.7467 9.26957 52.0059 9.05664C52.2698 8.83908 52.5845 8.66781 52.9502 8.54283C53.3205 8.41322 53.7325 8.34842 54.1861 8.34842C54.7324 8.34842 55.2138 8.441 55.6304 8.62615C56.0516 8.81131 56.3802 9.09136 56.6163 9.4663C56.857 9.83661 56.9774 10.3018 56.9774 10.8619V14.3614C56.9774 14.6113 56.9982 14.8775 57.0399 15.1599C57.0862 15.4422 57.1533 15.6852 57.2412 15.8889V16H55.9012C55.8363 15.8519 55.7854 15.6551 55.7484 15.4098C55.7114 15.1599 55.6929 14.9284 55.6929 14.7155ZM55.915 11.4452L55.9289 12.3478H54.6305C54.2648 12.3478 53.9385 12.3779 53.6515 12.4381C53.3645 12.4936 53.1238 12.5792 52.9294 12.695C52.735 12.8107 52.5869 12.9565 52.485 13.1324C52.3832 13.3037 52.3323 13.505 52.3323 13.7365C52.3323 13.9725 52.3855 14.1878 52.492 14.3822C52.5984 14.5766 52.7581 14.7317 52.9711 14.8474C53.1886 14.9585 53.4548 15.014 53.7695 15.014C54.163 15.014 54.5102 14.9307 54.811 14.7641C55.1119 14.5974 55.3503 14.3938 55.5262 14.1531C55.7067 13.9124 55.8039 13.6786 55.8178 13.4518L56.3664 14.0697C56.334 14.2642 56.246 14.4794 56.1025 14.7155C55.959 14.9516 55.7669 15.1784 55.5262 15.3959C55.2901 15.6089 55.0078 15.7871 54.6791 15.9306C54.3551 16.0694 53.9894 16.1389 53.5821 16.1389C53.0729 16.1389 52.6262 16.0393 52.242 15.8403C51.8624 15.6413 51.5662 15.3751 51.3533 15.0418C51.145 14.7039 51.0408 14.3267 51.0408 13.91C51.0408 13.5073 51.1195 13.1532 51.2769 12.8477C51.4343 12.5376 51.6611 12.2807 51.9573 12.077C52.2536 11.8687 52.61 11.7113 53.0266 11.6049C53.4432 11.4984 53.9084 11.4452 54.4222 11.4452H55.915ZM60.9976 15.2223L63.0875 8.48729H64.4623L61.4489 17.1595C61.3795 17.3447 61.2869 17.5437 61.1712 17.7567C61.0601 17.9742 60.9166 18.1802 60.7407 18.3746C60.5648 18.569 60.3518 18.7264 60.1019 18.8468C59.8566 18.9718 59.5626 19.0342 59.2201 19.0342C59.1182 19.0342 58.9886 19.0204 58.8313 18.9926C58.6739 18.9648 58.5628 18.9417 58.498 18.9232L58.491 17.8817C58.5281 17.8863 58.5859 17.8909 58.6646 17.8955C58.7479 17.9048 58.8058 17.9094 58.8382 17.9094C59.1298 17.9094 59.3775 17.8701 59.5811 17.7914C59.7848 17.7173 59.9561 17.59 60.0949 17.4095C60.2384 17.2336 60.3611 16.9906 60.4629 16.6804L60.9976 15.2223ZM59.4631 8.48729L61.4142 14.3197L61.7475 15.6737L60.824 16.1458L58.0605 8.48729H59.4631Z" fill="#51A7C2"/>
    <path d="M77 9L73 13L69 9" stroke="#51A7C2" stroke-width="2"/>
    </svg>
    